<svg width="80" height="80" viewBox="0 0 80 80" fill="none" xmlns="http://www.w3.org/2000/svg">
<mask id="mask0_18_2288" style="mask-type:alpha" maskUnits="userSpaceOnUse" x="13" y="18" width="54" height="40">
<path d="M13 20C13 18.8954 13.8954 18 15 18H65C66.1046 18 67 18.8954 67 20V58H13V20Z" fill="#C4C4C4"/>
</mask>
<g mask="url(#mask0_18_2288)">
<rect x="13" y="18" width="54" height="40" fill="url(#paint0_linear_18_2288)"/>
<rect x="40" y="18" width="27" height="40" fill="#BBDBEE"/>
<rect opacity="0.1" x="13" y="56" width="54" height="2" fill="white"/>
</g>
<path d="M9.8747 59.7341C9.20681 59.1163 9.64394 58 10.5537 58H69.4463C70.3561 58 70.7932 59.1163 70.1253 59.7341L67.9631 61.7341C67.7783 61.905 67.5358 62 67.2841 62H12.7159C12.4642 62 12.2217 61.905 12.0369 61.7341L9.8747 59.7341Z" fill="url(#paint1_linear_18_2288)"/>
<rect x="19" y="32" width="15" height="2" rx="1" fill="url(#paint2_linear_18_2288)"/>
<rect x="19" y="39" width="15" height="2" rx="1" fill="url(#paint3_linear_18_2288)"/>
<rect x="19" y="46" width="15" height="2" rx="1" fill="url(#paint4_linear_18_2288)"/>
<rect opacity="0.44" x="46" y="32" width="15" height="2" rx="1" fill="url(#paint5_linear_18_2288)"/>
<rect opacity="0.44" x="46" y="39" width="15" height="2" rx="1" fill="url(#paint6_linear_18_2288)"/>
<rect opacity="0.44" x="46" y="46" width="15" height="2" rx="1" fill="url(#paint7_linear_18_2288)"/>
<circle cx="18" cy="23" r="2" fill="#E66D6D"/>
<circle cx="25" cy="23" r="2" fill="#99EF9C"/>
<g filter="url(#filter0_d_18_2288)">
<path fill-rule="evenodd" clip-rule="evenodd" d="M47.3891 45.3891C51.4896 41.2886 51.4896 34.6404 47.3891 30.5399C43.2886 26.4394 36.6404 26.4394 32.5399 30.5399C28.4393 34.6404 28.4393 41.2886 32.5399 45.3891C36.6404 49.4896 43.2886 49.4896 47.3891 45.3891ZM49.5104 47.5104C54.7825 42.2383 54.7825 33.6906 49.5104 28.4185C44.2383 23.1465 35.6906 23.1465 30.4185 28.4185C25.1465 33.6906 25.1465 42.2383 30.4185 47.5104C35.6906 52.7825 44.2383 52.7825 49.5104 47.5104Z" fill="url(#paint8_linear_18_2288)"/>
<path d="M47.5659 45.5659C51.764 41.3677 51.764 34.5612 47.5659 30.3631C43.3677 26.1649 36.5612 26.1649 32.3631 30.3631C28.1649 34.5612 28.1649 41.3677 32.3631 45.5659C36.5612 49.764 43.3677 49.764 47.5659 45.5659ZM49.3336 28.5953C54.5081 33.7698 54.5081 42.1592 49.3336 47.3336C44.1592 52.5081 35.7698 52.5081 30.5953 47.3336C25.4209 42.1592 25.4209 33.7698 30.5953 28.5953C35.7698 23.4209 44.1592 23.4209 49.3336 28.5953Z" stroke="white" stroke-opacity="0.13" stroke-width="0.5"/>
<g filter="url(#filter1_b_18_2288)">
<circle cx="39.9645" cy="37.9645" r="10.5" transform="rotate(-45 39.9645 37.9645)" fill="url(#paint9_linear_18_2288)"/>
</g>
<rect x="49.5104" y="47.5104" width="1" height="3" transform="rotate(-45 49.5104 47.5104)" fill="url(#paint10_linear_18_2288)"/>
<rect x="49.5104" y="47.5104" width="1" height="3" transform="rotate(-45 49.5104 47.5104)" fill="url(#paint11_radial_18_2288)" fill-opacity="0.2"/>
<rect width="2" height="8" rx="0.4" transform="matrix(0.707107 -0.707107 -0.707107 -0.707107 56.2279 54.9351)" fill="url(#paint12_linear_18_2288)"/>
<rect width="2" height="8" rx="0.4" transform="matrix(0.707107 -0.707107 -0.707107 -0.707107 56.2279 54.9351)" fill="url(#paint13_radial_18_2288)" fill-opacity="0.2"/>
</g>
<defs>
<filter id="filter0_d_18_2288" x="22.4645" y="20.4645" width="39.012" height="38.3049" filterUnits="userSpaceOnUse" color-interpolation-filters="sRGB">
<feFlood flood-opacity="0" result="BackgroundImageFix"/>
<feColorMatrix in="SourceAlpha" type="matrix" values="0 0 0 0 0 0 0 0 0 0 0 0 0 0 0 0 0 0 127 0" result="hardAlpha"/>
<feOffset/>
<feGaussianBlur stdDeviation="2"/>
<feColorMatrix type="matrix" values="0 0 0 0 0 0 0 0 0 0.26825 0 0 0 0 0.4625 0 0 0 0.22 0"/>
<feBlend mode="normal" in2="BackgroundImageFix" result="effect1_dropShadow_18_2288"/>
<feBlend mode="normal" in="SourceGraphic" in2="effect1_dropShadow_18_2288" result="shape"/>
</filter>
<filter id="filter1_b_18_2288" x="28.4645" y="26.4645" width="23" height="23" filterUnits="userSpaceOnUse" color-interpolation-filters="sRGB">
<feFlood flood-opacity="0" result="BackgroundImageFix"/>
<feGaussianBlur in="BackgroundImage" stdDeviation="0.5"/>
<feComposite in2="SourceAlpha" operator="in" result="effect1_backgroundBlur_18_2288"/>
<feBlend mode="normal" in="SourceGraphic" in2="effect1_backgroundBlur_18_2288" result="shape"/>
</filter>
<linearGradient id="paint0_linear_18_2288" x1="23.9688" y1="18" x2="44.9261" y2="55.2268" gradientUnits="userSpaceOnUse">
<stop stop-color="#A9D6FF"/>
<stop offset="1" stop-color="#147FE2"/>
</linearGradient>
<linearGradient id="paint1_linear_18_2288" x1="62.5641" y1="51" x2="63.7757" y2="59.947" gradientUnits="userSpaceOnUse">
<stop stop-color="#4880FF"/>
<stop offset="1" stop-color="#0046DB"/>
</linearGradient>
<linearGradient id="paint2_linear_18_2288" x1="16.3529" y1="33" x2="33.1584" y2="34.5609" gradientUnits="userSpaceOnUse">
<stop stop-color="#E7F6FF" stop-opacity="0.28"/>
<stop offset="1" stop-color="#7CCEFF" stop-opacity="0.61"/>
</linearGradient>
<linearGradient id="paint3_linear_18_2288" x1="16.3529" y1="40" x2="33.1584" y2="41.5609" gradientUnits="userSpaceOnUse">
<stop stop-color="#E7F6FF" stop-opacity="0.28"/>
<stop offset="1" stop-color="#7CCEFF" stop-opacity="0.61"/>
</linearGradient>
<linearGradient id="paint4_linear_18_2288" x1="16.3529" y1="47" x2="33.1584" y2="48.5609" gradientUnits="userSpaceOnUse">
<stop stop-color="#E7F6FF" stop-opacity="0"/>
<stop offset="1" stop-color="#7CCEFF" stop-opacity="0.61"/>
</linearGradient>
<linearGradient id="paint5_linear_18_2288" x1="43.3529" y1="33" x2="60.1584" y2="34.5609" gradientUnits="userSpaceOnUse">
<stop stop-color="#85C4FE"/>
<stop offset="1" stop-color="#258AE7"/>
</linearGradient>
<linearGradient id="paint6_linear_18_2288" x1="43.3529" y1="40" x2="60.1584" y2="41.5609" gradientUnits="userSpaceOnUse">
<stop stop-color="#85C4FE"/>
<stop offset="1" stop-color="#258AE7"/>
</linearGradient>
<linearGradient id="paint7_linear_18_2288" x1="43.3529" y1="47" x2="60.1584" y2="48.5609" gradientUnits="userSpaceOnUse">
<stop stop-color="#85C4FE"/>
<stop offset="1" stop-color="#258AE7"/>
</linearGradient>
<linearGradient id="paint8_linear_18_2288" x1="27" y1="32" x2="49.5104" y2="47.5104" gradientUnits="userSpaceOnUse">
<stop stop-color="#0038FF"/>
<stop offset="1" stop-color="#5AC2FF" stop-opacity="0.92"/>
</linearGradient>
<linearGradient id="paint9_linear_18_2288" x1="44.2071" y1="27.4081" x2="39.9645" y2="48.4645" gradientUnits="userSpaceOnUse">
<stop stop-color="white"/>
<stop offset="1" stop-color="#A9E0FF" stop-opacity="0.41"/>
</linearGradient>
<linearGradient id="paint10_linear_18_2288" x1="50.0104" y1="47.5104" x2="50.0104" y2="50.5104" gradientUnits="userSpaceOnUse">
<stop stop-color="#3B98DC"/>
<stop offset="1" stop-color="#95D9FF"/>
</linearGradient>
<radialGradient id="paint11_radial_18_2288" cx="0" cy="0" r="1" gradientUnits="userSpaceOnUse" gradientTransform="translate(50.0104 49.0104) rotate(90.6262) scale(1.09281 0.364619)">
<stop stop-color="white"/>
<stop offset="1" stop-color="#CCEDFF"/>
</radialGradient>
<linearGradient id="paint12_linear_18_2288" x1="1" y1="0" x2="1" y2="8" gradientUnits="userSpaceOnUse">
<stop stop-color="#3B98DC"/>
<stop offset="1" stop-color="#0D95E1"/>
</linearGradient>
<radialGradient id="paint13_radial_18_2288" cx="0" cy="0" r="1" gradientUnits="userSpaceOnUse" gradientTransform="translate(1 4) rotate(90.4697) scale(2.91409 0.729258)">
<stop stop-color="white"/>
<stop offset="1" stop-color="#CCEDFF"/>
</radialGradient>
</defs>
</svg>
