<svg width="80" height="80" viewBox="0 0 80 80" fill="none" xmlns="http://www.w3.org/2000/svg">
<path d="M60.6035 16H19.3965C15.3115 16 12 18.8731 12 22.4172V57.5828C12 61.1269 15.3115 64 19.3965 64H60.6035C64.6885 64 68 61.1269 68 57.5828V22.4172C68 18.8731 64.6885 16 60.6035 16Z" fill="url(#paint0_linear_18_2271)"/>
<path d="M60.6035 16H19.3965C15.3115 16 12 18.8731 12 22.4172V57.5828C12 61.1269 15.3115 64 19.3965 64H60.6035C64.6885 64 68 61.1269 68 57.5828V22.4172C68 18.8731 64.6885 16 60.6035 16Z" fill="url(#paint1_radial_18_2271)" fill-opacity="0.2"/>
<path d="M15 26C15 24.3431 16.3431 23 18 23H62C63.6569 23 65 24.3431 65 26V56.5979C65 59.0291 62.7066 61 59.8774 61H20.1226C17.2935 61 15 59.0291 15 56.5979V26Z" fill="#222222"/>
<path d="M59.6364 53.1818H20.3636V55.3636H59.6364V53.1818Z" fill="url(#paint2_linear_18_2271)"/>
<path d="M32.3636 43.3636H20.3636V45.5455H32.3636V43.3636Z" fill="url(#paint3_linear_18_2271)"/>
<path d="M32.3636 43.3636H20.3636V45.5455H32.3636V43.3636Z" fill="url(#paint4_radial_18_2271)" fill-opacity="0.2"/>
<path d="M37.8182 33.5454H20.3636V35.7272H37.8182V33.5454Z" fill="url(#paint5_linear_18_2271)"/>
<path d="M59.6364 43.3636H40V45.5455H59.6364V43.3636Z" fill="url(#paint6_linear_18_2271)"/>
<path d="M59.6363 33.5454H50.9091V35.7272H59.6363V33.5454Z" fill="url(#paint7_linear_18_2271)"/>
<path d="M59.6363 33.5454H50.9091V35.7272H59.6363V33.5454Z" fill="url(#paint8_radial_18_2271)" fill-opacity="0.2"/>
<path d="M21.856 29.288C21.664 29.488 21.424 29.672 21.136 29.848C20.848 30.008 20.576 30.12 20.32 30.184V31.112C20.848 30.96 21.28 30.728 21.624 30.416V35H22.56V29.288H21.856ZM25.6813 29.176C25.0093 29.176 24.4893 29.448 24.1213 30.008C23.7693 30.536 23.5933 31.248 23.5933 32.144C23.5933 33.04 23.7693 33.752 24.1213 34.28C24.4893 34.832 25.0093 35.112 25.6813 35.112C26.3453 35.112 26.8653 34.832 27.2413 34.28C27.5933 33.752 27.7693 33.04 27.7693 32.144C27.7693 31.248 27.5933 30.536 27.2413 30.008C26.8653 29.448 26.3453 29.176 25.6813 29.176ZM25.6813 29.968C26.1293 29.968 26.4493 30.216 26.6413 30.728C26.7693 31.072 26.8333 31.544 26.8333 32.144C26.8333 32.736 26.7693 33.208 26.6413 33.56C26.4493 34.064 26.1293 34.32 25.6813 34.32C25.2253 34.32 24.9053 34.064 24.7213 33.56C24.5933 33.208 24.5293 32.736 24.5293 32.144C24.5293 31.544 24.5933 31.072 24.7213 30.728C24.9053 30.216 25.2253 29.968 25.6813 29.968ZM30.4781 29.176C29.8061 29.176 29.2861 29.448 28.9181 30.008C28.5661 30.536 28.3901 31.248 28.3901 32.144C28.3901 33.04 28.5661 33.752 28.9181 34.28C29.2861 34.832 29.8061 35.112 30.4781 35.112C31.1421 35.112 31.6621 34.832 32.0381 34.28C32.3901 33.752 32.5661 33.04 32.5661 32.144C32.5661 31.248 32.3901 30.536 32.0381 30.008C31.6621 29.448 31.1421 29.176 30.4781 29.176ZM30.4781 29.968C30.9261 29.968 31.2461 30.216 31.4381 30.728C31.5661 31.072 31.6301 31.544 31.6301 32.144C31.6301 32.736 31.5661 33.208 31.4381 33.56C31.2461 34.064 30.9261 34.32 30.4781 34.32C30.0221 34.32 29.7021 34.064 29.5181 33.56C29.3901 33.208 29.3261 32.736 29.3261 32.144C29.3261 31.544 29.3901 31.072 29.5181 30.728C29.7021 30.216 30.0221 29.968 30.4781 29.968ZM34.731 29.288C34.539 29.488 34.299 29.672 34.011 29.848C33.723 30.008 33.451 30.12 33.195 30.184V31.112C33.723 30.96 34.155 30.728 34.499 30.416V35H35.435V29.288H34.731Z" fill="url(#paint9_linear_18_2271)"/>
<path d="M21.856 29.288C21.664 29.488 21.424 29.672 21.136 29.848C20.848 30.008 20.576 30.12 20.32 30.184V31.112C20.848 30.96 21.28 30.728 21.624 30.416V35H22.56V29.288H21.856ZM25.6813 29.176C25.0093 29.176 24.4893 29.448 24.1213 30.008C23.7693 30.536 23.5933 31.248 23.5933 32.144C23.5933 33.04 23.7693 33.752 24.1213 34.28C24.4893 34.832 25.0093 35.112 25.6813 35.112C26.3453 35.112 26.8653 34.832 27.2413 34.28C27.5933 33.752 27.7693 33.04 27.7693 32.144C27.7693 31.248 27.5933 30.536 27.2413 30.008C26.8653 29.448 26.3453 29.176 25.6813 29.176ZM25.6813 29.968C26.1293 29.968 26.4493 30.216 26.6413 30.728C26.7693 31.072 26.8333 31.544 26.8333 32.144C26.8333 32.736 26.7693 33.208 26.6413 33.56C26.4493 34.064 26.1293 34.32 25.6813 34.32C25.2253 34.32 24.9053 34.064 24.7213 33.56C24.5933 33.208 24.5293 32.736 24.5293 32.144C24.5293 31.544 24.5933 31.072 24.7213 30.728C24.9053 30.216 25.2253 29.968 25.6813 29.968ZM30.4781 29.176C29.8061 29.176 29.2861 29.448 28.9181 30.008C28.5661 30.536 28.3901 31.248 28.3901 32.144C28.3901 33.04 28.5661 33.752 28.9181 34.28C29.2861 34.832 29.8061 35.112 30.4781 35.112C31.1421 35.112 31.6621 34.832 32.0381 34.28C32.3901 33.752 32.5661 33.04 32.5661 32.144C32.5661 31.248 32.3901 30.536 32.0381 30.008C31.6621 29.448 31.1421 29.176 30.4781 29.176ZM30.4781 29.968C30.9261 29.968 31.2461 30.216 31.4381 30.728C31.5661 31.072 31.6301 31.544 31.6301 32.144C31.6301 32.736 31.5661 33.208 31.4381 33.56C31.2461 34.064 30.9261 34.32 30.4781 34.32C30.0221 34.32 29.7021 34.064 29.5181 33.56C29.3901 33.208 29.3261 32.736 29.3261 32.144C29.3261 31.544 29.3901 31.072 29.5181 30.728C29.7021 30.216 30.0221 29.968 30.4781 29.968ZM34.731 29.288C34.539 29.488 34.299 29.672 34.011 29.848C33.723 30.008 33.451 30.12 33.195 30.184V31.112C33.723 30.96 34.155 30.728 34.499 30.416V35H35.435V29.288H34.731Z" fill="url(#paint10_radial_18_2271)" fill-opacity="0.2"/>
<path d="M22.4 39.176C21.728 39.176 21.208 39.448 20.84 40.008C20.488 40.536 20.312 41.248 20.312 42.144C20.312 43.04 20.488 43.752 20.84 44.28C21.208 44.832 21.728 45.112 22.4 45.112C23.064 45.112 23.584 44.832 23.96 44.28C24.312 43.752 24.488 43.04 24.488 42.144C24.488 41.248 24.312 40.536 23.96 40.008C23.584 39.448 23.064 39.176 22.4 39.176ZM22.4 39.968C22.848 39.968 23.168 40.216 23.36 40.728C23.488 41.072 23.552 41.544 23.552 42.144C23.552 42.736 23.488 43.208 23.36 43.56C23.168 44.064 22.848 44.32 22.4 44.32C21.944 44.32 21.624 44.064 21.44 43.56C21.312 43.208 21.248 42.736 21.248 42.144C21.248 41.544 21.312 41.072 21.44 40.728C21.624 40.216 21.944 39.968 22.4 39.968ZM27.1969 39.176C26.5249 39.176 26.0049 39.448 25.6369 40.008C25.2849 40.536 25.1089 41.248 25.1089 42.144C25.1089 43.04 25.2849 43.752 25.6369 44.28C26.0049 44.832 26.5249 45.112 27.1969 45.112C27.8609 45.112 28.3809 44.832 28.7569 44.28C29.1089 43.752 29.2849 43.04 29.2849 42.144C29.2849 41.248 29.1089 40.536 28.7569 40.008C28.3809 39.448 27.8609 39.176 27.1969 39.176ZM27.1969 39.968C27.6449 39.968 27.9649 40.216 28.1569 40.728C28.2849 41.072 28.3489 41.544 28.3489 42.144C28.3489 42.736 28.2849 43.208 28.1569 43.56C27.9649 44.064 27.6449 44.32 27.1969 44.32C26.7409 44.32 26.4209 44.064 26.2369 43.56C26.1089 43.208 26.0449 42.736 26.0449 42.144C26.0449 41.544 26.1089 41.072 26.2369 40.728C26.4209 40.216 26.7409 39.968 27.1969 39.968Z" fill="url(#paint11_linear_18_2271)"/>
<path d="M22.4 49.176C21.728 49.176 21.208 49.448 20.84 50.008C20.488 50.536 20.312 51.248 20.312 52.144C20.312 53.04 20.488 53.752 20.84 54.28C21.208 54.832 21.728 55.112 22.4 55.112C23.064 55.112 23.584 54.832 23.96 54.28C24.312 53.752 24.488 53.04 24.488 52.144C24.488 51.248 24.312 50.536 23.96 50.008C23.584 49.448 23.064 49.176 22.4 49.176ZM22.4 49.968C22.848 49.968 23.168 50.216 23.36 50.728C23.488 51.072 23.552 51.544 23.552 52.144C23.552 52.736 23.488 53.208 23.36 53.56C23.168 54.064 22.848 54.32 22.4 54.32C21.944 54.32 21.624 54.064 21.44 53.56C21.312 53.208 21.248 52.736 21.248 52.144C21.248 51.544 21.312 51.072 21.44 50.728C21.624 50.216 21.944 49.968 22.4 49.968ZM26.6529 49.288C26.4609 49.488 26.2209 49.672 25.9329 49.848C25.6449 50.008 25.3729 50.12 25.1169 50.184V51.112C25.6449 50.96 26.0769 50.728 26.4209 50.416V55H27.3569V49.288H26.6529ZM30.4781 49.176C29.8061 49.176 29.2861 49.448 28.9181 50.008C28.5661 50.536 28.3901 51.248 28.3901 52.144C28.3901 53.04 28.5661 53.752 28.9181 54.28C29.2861 54.832 29.8061 55.112 30.4781 55.112C31.1421 55.112 31.6621 54.832 32.0381 54.28C32.3901 53.752 32.5661 53.04 32.5661 52.144C32.5661 51.248 32.3901 50.536 32.0381 50.008C31.6621 49.448 31.1421 49.176 30.4781 49.176ZM30.4781 49.968C30.9261 49.968 31.2461 50.216 31.4381 50.728C31.5661 51.072 31.6301 51.544 31.6301 52.144C31.6301 52.736 31.5661 53.208 31.4381 53.56C31.2461 54.064 30.9261 54.32 30.4781 54.32C30.0221 54.32 29.7021 54.064 29.5181 53.56C29.3901 53.208 29.3261 52.736 29.3261 52.144C29.3261 51.544 29.3901 51.072 29.5181 50.728C29.7021 50.216 30.0221 49.968 30.4781 49.968ZM35.275 49.176C34.603 49.176 34.083 49.448 33.715 50.008C33.363 50.536 33.187 51.248 33.187 52.144C33.187 53.04 33.363 53.752 33.715 54.28C34.083 54.832 34.603 55.112 35.275 55.112C35.939 55.112 36.459 54.832 36.835 54.28C37.187 53.752 37.363 53.04 37.363 52.144C37.363 51.248 37.187 50.536 36.835 50.008C36.459 49.448 35.939 49.176 35.275 49.176ZM35.275 49.968C35.723 49.968 36.043 50.216 36.235 50.728C36.363 51.072 36.427 51.544 36.427 52.144C36.427 52.736 36.363 53.208 36.235 53.56C36.043 54.064 35.723 54.32 35.275 54.32C34.819 54.32 34.499 54.064 34.315 53.56C34.187 53.208 34.123 52.736 34.123 52.144C34.123 51.544 34.187 51.072 34.315 50.728C34.499 50.216 34.819 49.968 35.275 49.968ZM40.0719 49.176C39.3999 49.176 38.8799 49.448 38.5119 50.008C38.1599 50.536 37.9839 51.248 37.9839 52.144C37.9839 53.04 38.1599 53.752 38.5119 54.28C38.8799 54.832 39.3999 55.112 40.0719 55.112C40.7359 55.112 41.2559 54.832 41.6319 54.28C41.9839 53.752 42.1599 53.04 42.1599 52.144C42.1599 51.248 41.9839 50.536 41.6319 50.008C41.2559 49.448 40.7359 49.176 40.0719 49.176ZM40.0719 49.968C40.5199 49.968 40.8399 50.216 41.0319 50.728C41.1599 51.072 41.2239 51.544 41.2239 52.144C41.2239 52.736 41.1599 53.208 41.0319 53.56C40.8399 54.064 40.5199 54.32 40.0719 54.32C39.6159 54.32 39.2959 54.064 39.1119 53.56C38.9839 53.208 38.9199 52.736 38.9199 52.144C38.9199 51.544 38.9839 51.072 39.1119 50.728C39.2959 50.216 39.6159 49.968 40.0719 49.968ZM44.8688 49.176C44.1968 49.176 43.6768 49.448 43.3088 50.008C42.9568 50.536 42.7808 51.248 42.7808 52.144C42.7808 53.04 42.9568 53.752 43.3088 54.28C43.6768 54.832 44.1968 55.112 44.8688 55.112C45.5328 55.112 46.0528 54.832 46.4288 54.28C46.7808 53.752 46.9568 53.04 46.9568 52.144C46.9568 51.248 46.7808 50.536 46.4288 50.008C46.0528 49.448 45.5328 49.176 44.8688 49.176ZM44.8688 49.968C45.3168 49.968 45.6368 50.216 45.8288 50.728C45.9568 51.072 46.0208 51.544 46.0208 52.144C46.0208 52.736 45.9568 53.208 45.8288 53.56C45.6368 54.064 45.3168 54.32 44.8688 54.32C44.4128 54.32 44.0928 54.064 43.9088 53.56C43.7808 53.208 43.7168 52.736 43.7168 52.144C43.7168 51.544 43.7808 51.072 43.9088 50.728C44.0928 50.216 44.4128 49.968 44.8688 49.968ZM49.1216 49.288C48.9296 49.488 48.6896 49.672 48.4016 49.848C48.1136 50.008 47.8416 50.12 47.5856 50.184V51.112C48.1136 50.96 48.5456 50.728 48.8896 50.416V55H49.8256V49.288H49.1216ZM52.9469 49.176C52.2749 49.176 51.7549 49.448 51.3869 50.008C51.0349 50.536 50.8589 51.248 50.8589 52.144C50.8589 53.04 51.0349 53.752 51.3869 54.28C51.7549 54.832 52.2749 55.112 52.9469 55.112C53.6109 55.112 54.1309 54.832 54.5069 54.28C54.8589 53.752 55.0349 53.04 55.0349 52.144C55.0349 51.248 54.8589 50.536 54.5069 50.008C54.1309 49.448 53.6109 49.176 52.9469 49.176ZM52.9469 49.968C53.3949 49.968 53.7149 50.216 53.9069 50.728C54.0349 51.072 54.0989 51.544 54.0989 52.144C54.0989 52.736 54.0349 53.208 53.9069 53.56C53.7149 54.064 53.3949 54.32 52.9469 54.32C52.4909 54.32 52.1709 54.064 51.9869 53.56C51.8589 53.208 51.7949 52.736 51.7949 52.144C51.7949 51.544 51.8589 51.072 51.9869 50.728C52.1709 50.216 52.4909 49.968 52.9469 49.968Z" fill="url(#paint12_linear_18_2271)"/>
<path d="M22.4 49.176C21.728 49.176 21.208 49.448 20.84 50.008C20.488 50.536 20.312 51.248 20.312 52.144C20.312 53.04 20.488 53.752 20.84 54.28C21.208 54.832 21.728 55.112 22.4 55.112C23.064 55.112 23.584 54.832 23.96 54.28C24.312 53.752 24.488 53.04 24.488 52.144C24.488 51.248 24.312 50.536 23.96 50.008C23.584 49.448 23.064 49.176 22.4 49.176ZM22.4 49.968C22.848 49.968 23.168 50.216 23.36 50.728C23.488 51.072 23.552 51.544 23.552 52.144C23.552 52.736 23.488 53.208 23.36 53.56C23.168 54.064 22.848 54.32 22.4 54.32C21.944 54.32 21.624 54.064 21.44 53.56C21.312 53.208 21.248 52.736 21.248 52.144C21.248 51.544 21.312 51.072 21.44 50.728C21.624 50.216 21.944 49.968 22.4 49.968ZM26.6529 49.288C26.4609 49.488 26.2209 49.672 25.9329 49.848C25.6449 50.008 25.3729 50.12 25.1169 50.184V51.112C25.6449 50.96 26.0769 50.728 26.4209 50.416V55H27.3569V49.288H26.6529ZM30.4781 49.176C29.8061 49.176 29.2861 49.448 28.9181 50.008C28.5661 50.536 28.3901 51.248 28.3901 52.144C28.3901 53.04 28.5661 53.752 28.9181 54.28C29.2861 54.832 29.8061 55.112 30.4781 55.112C31.1421 55.112 31.6621 54.832 32.0381 54.28C32.3901 53.752 32.5661 53.04 32.5661 52.144C32.5661 51.248 32.3901 50.536 32.0381 50.008C31.6621 49.448 31.1421 49.176 30.4781 49.176ZM30.4781 49.968C30.9261 49.968 31.2461 50.216 31.4381 50.728C31.5661 51.072 31.6301 51.544 31.6301 52.144C31.6301 52.736 31.5661 53.208 31.4381 53.56C31.2461 54.064 30.9261 54.32 30.4781 54.32C30.0221 54.32 29.7021 54.064 29.5181 53.56C29.3901 53.208 29.3261 52.736 29.3261 52.144C29.3261 51.544 29.3901 51.072 29.5181 50.728C29.7021 50.216 30.0221 49.968 30.4781 49.968ZM35.275 49.176C34.603 49.176 34.083 49.448 33.715 50.008C33.363 50.536 33.187 51.248 33.187 52.144C33.187 53.04 33.363 53.752 33.715 54.28C34.083 54.832 34.603 55.112 35.275 55.112C35.939 55.112 36.459 54.832 36.835 54.28C37.187 53.752 37.363 53.04 37.363 52.144C37.363 51.248 37.187 50.536 36.835 50.008C36.459 49.448 35.939 49.176 35.275 49.176ZM35.275 49.968C35.723 49.968 36.043 50.216 36.235 50.728C36.363 51.072 36.427 51.544 36.427 52.144C36.427 52.736 36.363 53.208 36.235 53.56C36.043 54.064 35.723 54.32 35.275 54.32C34.819 54.32 34.499 54.064 34.315 53.56C34.187 53.208 34.123 52.736 34.123 52.144C34.123 51.544 34.187 51.072 34.315 50.728C34.499 50.216 34.819 49.968 35.275 49.968ZM40.0719 49.176C39.3999 49.176 38.8799 49.448 38.5119 50.008C38.1599 50.536 37.9839 51.248 37.9839 52.144C37.9839 53.04 38.1599 53.752 38.5119 54.28C38.8799 54.832 39.3999 55.112 40.0719 55.112C40.7359 55.112 41.2559 54.832 41.6319 54.28C41.9839 53.752 42.1599 53.04 42.1599 52.144C42.1599 51.248 41.9839 50.536 41.6319 50.008C41.2559 49.448 40.7359 49.176 40.0719 49.176ZM40.0719 49.968C40.5199 49.968 40.8399 50.216 41.0319 50.728C41.1599 51.072 41.2239 51.544 41.2239 52.144C41.2239 52.736 41.1599 53.208 41.0319 53.56C40.8399 54.064 40.5199 54.32 40.0719 54.32C39.6159 54.32 39.2959 54.064 39.1119 53.56C38.9839 53.208 38.9199 52.736 38.9199 52.144C38.9199 51.544 38.9839 51.072 39.1119 50.728C39.2959 50.216 39.6159 49.968 40.0719 49.968ZM44.8688 49.176C44.1968 49.176 43.6768 49.448 43.3088 50.008C42.9568 50.536 42.7808 51.248 42.7808 52.144C42.7808 53.04 42.9568 53.752 43.3088 54.28C43.6768 54.832 44.1968 55.112 44.8688 55.112C45.5328 55.112 46.0528 54.832 46.4288 54.28C46.7808 53.752 46.9568 53.04 46.9568 52.144C46.9568 51.248 46.7808 50.536 46.4288 50.008C46.0528 49.448 45.5328 49.176 44.8688 49.176ZM44.8688 49.968C45.3168 49.968 45.6368 50.216 45.8288 50.728C45.9568 51.072 46.0208 51.544 46.0208 52.144C46.0208 52.736 45.9568 53.208 45.8288 53.56C45.6368 54.064 45.3168 54.32 44.8688 54.32C44.4128 54.32 44.0928 54.064 43.9088 53.56C43.7808 53.208 43.7168 52.736 43.7168 52.144C43.7168 51.544 43.7808 51.072 43.9088 50.728C44.0928 50.216 44.4128 49.968 44.8688 49.968ZM49.1216 49.288C48.9296 49.488 48.6896 49.672 48.4016 49.848C48.1136 50.008 47.8416 50.12 47.5856 50.184V51.112C48.1136 50.96 48.5456 50.728 48.8896 50.416V55H49.8256V49.288H49.1216ZM52.9469 49.176C52.2749 49.176 51.7549 49.448 51.3869 50.008C51.0349 50.536 50.8589 51.248 50.8589 52.144C50.8589 53.04 51.0349 53.752 51.3869 54.28C51.7549 54.832 52.2749 55.112 52.9469 55.112C53.6109 55.112 54.1309 54.832 54.5069 54.28C54.8589 53.752 55.0349 53.04 55.0349 52.144C55.0349 51.248 54.8589 50.536 54.5069 50.008C54.1309 49.448 53.6109 49.176 52.9469 49.176ZM52.9469 49.968C53.3949 49.968 53.7149 50.216 53.9069 50.728C54.0349 51.072 54.0989 51.544 54.0989 52.144C54.0989 52.736 54.0349 53.208 53.9069 53.56C53.7149 54.064 53.3949 54.32 52.9469 54.32C52.4909 54.32 52.1709 54.064 51.9869 53.56C51.8589 53.208 51.7949 52.736 51.7949 52.144C51.7949 51.544 51.8589 51.072 51.9869 50.728C52.1709 50.216 52.4909 49.968 52.9469 49.968Z" fill="url(#paint13_radial_18_2271)" fill-opacity="0.2"/>
<path d="M53.4 29.176C52.728 29.176 52.208 29.448 51.84 30.008C51.488 30.536 51.312 31.248 51.312 32.144C51.312 33.04 51.488 33.752 51.84 34.28C52.208 34.832 52.728 35.112 53.4 35.112C54.064 35.112 54.584 34.832 54.96 34.28C55.312 33.752 55.488 33.04 55.488 32.144C55.488 31.248 55.312 30.536 54.96 30.008C54.584 29.448 54.064 29.176 53.4 29.176ZM53.4 29.968C53.848 29.968 54.168 30.216 54.36 30.728C54.488 31.072 54.552 31.544 54.552 32.144C54.552 32.736 54.488 33.208 54.36 33.56C54.168 34.064 53.848 34.32 53.4 34.32C52.944 34.32 52.624 34.064 52.44 33.56C52.312 33.208 52.248 32.736 52.248 32.144C52.248 31.544 52.312 31.072 52.44 30.728C52.624 30.216 52.944 29.968 53.4 29.968ZM57.6529 29.288C57.4609 29.488 57.2209 29.672 56.9329 29.848C56.6449 30.008 56.3729 30.12 56.1169 30.184V31.112C56.6449 30.96 57.0769 30.728 57.4209 30.416V35H58.3569V29.288H57.6529Z" fill="url(#paint14_linear_18_2271)"/>
<path d="M40.856 39.288C40.664 39.488 40.424 39.672 40.136 39.848C39.848 40.008 39.576 40.12 39.32 40.184V41.112C39.848 40.96 40.28 40.728 40.624 40.416V45H41.56V39.288H40.856ZM44.6813 39.176C44.0093 39.176 43.4893 39.448 43.1213 40.008C42.7693 40.536 42.5933 41.248 42.5933 42.144C42.5933 43.04 42.7693 43.752 43.1213 44.28C43.4893 44.832 44.0093 45.112 44.6813 45.112C45.3453 45.112 45.8653 44.832 46.2413 44.28C46.5933 43.752 46.7693 43.04 46.7693 42.144C46.7693 41.248 46.5933 40.536 46.2413 40.008C45.8653 39.448 45.3453 39.176 44.6813 39.176ZM44.6813 39.968C45.1293 39.968 45.4493 40.216 45.6413 40.728C45.7693 41.072 45.8333 41.544 45.8333 42.144C45.8333 42.736 45.7693 43.208 45.6413 43.56C45.4493 44.064 45.1293 44.32 44.6813 44.32C44.2253 44.32 43.9053 44.064 43.7213 43.56C43.5933 43.208 43.5293 42.736 43.5293 42.144C43.5293 41.544 43.5933 41.072 43.7213 40.728C43.9053 40.216 44.2253 39.968 44.6813 39.968ZM48.9341 39.288C48.7421 39.488 48.5021 39.672 48.2141 39.848C47.9261 40.008 47.6541 40.12 47.3981 40.184V41.112C47.9261 40.96 48.3581 40.728 48.7021 40.416V45H49.6381V39.288H48.9341ZM52.7594 39.176C52.0874 39.176 51.5674 39.448 51.1994 40.008C50.8474 40.536 50.6714 41.248 50.6714 42.144C50.6714 43.04 50.8474 43.752 51.1994 44.28C51.5674 44.832 52.0874 45.112 52.7594 45.112C53.4234 45.112 53.9434 44.832 54.3194 44.28C54.6714 43.752 54.8474 43.04 54.8474 42.144C54.8474 41.248 54.6714 40.536 54.3194 40.008C53.9434 39.448 53.4234 39.176 52.7594 39.176ZM52.7594 39.968C53.2074 39.968 53.5274 40.216 53.7194 40.728C53.8474 41.072 53.9114 41.544 53.9114 42.144C53.9114 42.736 53.8474 43.208 53.7194 43.56C53.5274 44.064 53.2074 44.32 52.7594 44.32C52.3034 44.32 51.9834 44.064 51.7994 43.56C51.6714 43.208 51.6074 42.736 51.6074 42.144C51.6074 41.544 51.6714 41.072 51.7994 40.728C51.9834 40.216 52.3034 39.968 52.7594 39.968ZM57.0123 39.288C56.8203 39.488 56.5803 39.672 56.2923 39.848C56.0043 40.008 55.7323 40.12 55.4763 40.184V41.112C56.0043 40.96 56.4363 40.728 56.7803 40.416V45H57.7163V39.288H57.0123Z" fill="url(#paint15_linear_18_2271)"/>
<path d="M40.856 39.288C40.664 39.488 40.424 39.672 40.136 39.848C39.848 40.008 39.576 40.12 39.32 40.184V41.112C39.848 40.96 40.28 40.728 40.624 40.416V45H41.56V39.288H40.856ZM44.6813 39.176C44.0093 39.176 43.4893 39.448 43.1213 40.008C42.7693 40.536 42.5933 41.248 42.5933 42.144C42.5933 43.04 42.7693 43.752 43.1213 44.28C43.4893 44.832 44.0093 45.112 44.6813 45.112C45.3453 45.112 45.8653 44.832 46.2413 44.28C46.5933 43.752 46.7693 43.04 46.7693 42.144C46.7693 41.248 46.5933 40.536 46.2413 40.008C45.8653 39.448 45.3453 39.176 44.6813 39.176ZM44.6813 39.968C45.1293 39.968 45.4493 40.216 45.6413 40.728C45.7693 41.072 45.8333 41.544 45.8333 42.144C45.8333 42.736 45.7693 43.208 45.6413 43.56C45.4493 44.064 45.1293 44.32 44.6813 44.32C44.2253 44.32 43.9053 44.064 43.7213 43.56C43.5933 43.208 43.5293 42.736 43.5293 42.144C43.5293 41.544 43.5933 41.072 43.7213 40.728C43.9053 40.216 44.2253 39.968 44.6813 39.968ZM48.9341 39.288C48.7421 39.488 48.5021 39.672 48.2141 39.848C47.9261 40.008 47.6541 40.12 47.3981 40.184V41.112C47.9261 40.96 48.3581 40.728 48.7021 40.416V45H49.6381V39.288H48.9341ZM52.7594 39.176C52.0874 39.176 51.5674 39.448 51.1994 40.008C50.8474 40.536 50.6714 41.248 50.6714 42.144C50.6714 43.04 50.8474 43.752 51.1994 44.28C51.5674 44.832 52.0874 45.112 52.7594 45.112C53.4234 45.112 53.9434 44.832 54.3194 44.28C54.6714 43.752 54.8474 43.04 54.8474 42.144C54.8474 41.248 54.6714 40.536 54.3194 40.008C53.9434 39.448 53.4234 39.176 52.7594 39.176ZM52.7594 39.968C53.2074 39.968 53.5274 40.216 53.7194 40.728C53.8474 41.072 53.9114 41.544 53.9114 42.144C53.9114 42.736 53.8474 43.208 53.7194 43.56C53.5274 44.064 53.2074 44.32 52.7594 44.32C52.3034 44.32 51.9834 44.064 51.7994 43.56C51.6714 43.208 51.6074 42.736 51.6074 42.144C51.6074 41.544 51.6714 41.072 51.7994 40.728C51.9834 40.216 52.3034 39.968 52.7594 39.968ZM57.0123 39.288C56.8203 39.488 56.5803 39.672 56.2923 39.848C56.0043 40.008 55.7323 40.12 55.4763 40.184V41.112C56.0043 40.96 56.4363 40.728 56.7803 40.416V45H57.7163V39.288H57.0123Z" fill="url(#paint16_radial_18_2271)" fill-opacity="0.2"/>
<defs>
<linearGradient id="paint0_linear_18_2271" x1="40" y1="16" x2="40" y2="64" gradientUnits="userSpaceOnUse">
<stop stop-color="white"/>
<stop offset="1" stop-color="#95D9FF"/>
</linearGradient>
<radialGradient id="paint1_radial_18_2271" cx="0" cy="0" r="1" gradientUnits="userSpaceOnUse" gradientTransform="translate(40 40) rotate(92.1909) scale(17.4968 20.405)">
<stop stop-color="white"/>
<stop offset="1" stop-color="#CCEDFF"/>
</radialGradient>
<linearGradient id="paint2_linear_18_2271" x1="40" y1="53.1818" x2="40" y2="55.3636" gradientUnits="userSpaceOnUse">
<stop stop-color="#4880FF"/>
<stop offset="1" stop-color="#004CF9"/>
</linearGradient>
<linearGradient id="paint3_linear_18_2271" x1="26.3636" y1="43.3636" x2="26.3636" y2="45.5455" gradientUnits="userSpaceOnUse">
<stop stop-color="white"/>
<stop offset="1" stop-color="#95D9FF"/>
</linearGradient>
<radialGradient id="paint4_radial_18_2271" cx="0" cy="0" r="1" gradientUnits="userSpaceOnUse" gradientTransform="translate(26.3636 44.4546) rotate(100.223) scale(0.807547 4.30622)">
<stop stop-color="white"/>
<stop offset="1" stop-color="#CCEDFF"/>
</radialGradient>
<linearGradient id="paint5_linear_18_2271" x1="29.0909" y1="33.5454" x2="29.0909" y2="35.7272" gradientUnits="userSpaceOnUse">
<stop stop-color="#4880FF"/>
<stop offset="1" stop-color="#004CF9"/>
</linearGradient>
<linearGradient id="paint6_linear_18_2271" x1="49.8182" y1="43.3636" x2="49.8182" y2="45.5455" gradientUnits="userSpaceOnUse">
<stop stop-color="#4880FF"/>
<stop offset="1" stop-color="#004CF9"/>
</linearGradient>
<linearGradient id="paint7_linear_18_2271" x1="55.2727" y1="33.5454" x2="55.2727" y2="35.7272" gradientUnits="userSpaceOnUse">
<stop stop-color="white"/>
<stop offset="1" stop-color="#95D9FF"/>
</linearGradient>
<radialGradient id="paint8_radial_18_2271" cx="0" cy="0" r="1" gradientUnits="userSpaceOnUse" gradientTransform="translate(55.2727 34.6363) rotate(97.4725) scale(0.801533 3.1553)">
<stop stop-color="white"/>
<stop offset="1" stop-color="#CCEDFF"/>
</radialGradient>
<linearGradient id="paint9_linear_18_2271" x1="30" y1="27" x2="30" y2="36" gradientUnits="userSpaceOnUse">
<stop stop-color="white"/>
<stop offset="1" stop-color="#95D9FF"/>
</linearGradient>
<radialGradient id="paint10_radial_18_2271" cx="0" cy="0" r="1" gradientUnits="userSpaceOnUse" gradientTransform="translate(30 31.5) rotate(94.1677) scale(3.28694 7.27354)">
<stop stop-color="white"/>
<stop offset="1" stop-color="#CCEDFF"/>
</radialGradient>
<linearGradient id="paint11_linear_18_2271" x1="30" y1="41.4062" x2="30" y2="46" gradientUnits="userSpaceOnUse">
<stop stop-color="#A3F4FF"/>
<stop offset="1" stop-color="#004CF9"/>
</linearGradient>
<linearGradient id="paint12_linear_18_2271" x1="39.5" y1="47" x2="39.5" y2="56" gradientUnits="userSpaceOnUse">
<stop stop-color="white"/>
<stop offset="1" stop-color="#95D9FF"/>
</linearGradient>
<radialGradient id="paint13_radial_18_2271" cx="0" cy="0" r="1" gradientUnits="userSpaceOnUse" gradientTransform="translate(39.5 51.5) rotate(98.0873) scale(3.31118 14.0796)">
<stop stop-color="white"/>
<stop offset="1" stop-color="#CCEDFF"/>
</radialGradient>
<linearGradient id="paint14_linear_18_2271" x1="56" y1="30.0909" x2="56" y2="35.0909" gradientUnits="userSpaceOnUse">
<stop stop-color="#A3F4FF"/>
<stop offset="1" stop-color="#004CF9"/>
</linearGradient>
<linearGradient id="paint15_linear_18_2271" x1="50" y1="37" x2="50" y2="46" gradientUnits="userSpaceOnUse">
<stop stop-color="white"/>
<stop offset="1" stop-color="#95D9FF"/>
</linearGradient>
<radialGradient id="paint16_radial_18_2271" cx="0" cy="0" r="1" gradientUnits="userSpaceOnUse" gradientTransform="translate(50 41.5) rotate(94.5828) scale(3.28876 7.99646)">
<stop stop-color="white"/>
<stop offset="1" stop-color="#CCEDFF"/>
</radialGradient>
</defs>
</svg>
