<svg width="80" height="80" viewBox="0 0 80 80" fill="none" xmlns="http://www.w3.org/2000/svg">
<path d="M15.5716 53.1555C14.2687 52.3333 14.2687 50.4334 15.5716 49.6112L34.8491 37.4457C37.9236 35.5054 41.8398 35.5054 44.9144 37.4457L64.1918 49.6112C65.4947 50.4334 65.4947 52.3333 64.1918 53.1555L44.9144 65.321C41.8398 67.2613 37.9236 67.2613 34.8491 65.321L15.5716 53.1555Z" fill="url(#paint0_linear_18_2262)"/>
<path d="M15.5716 45.8211C14.2687 44.9989 14.2687 43.099 15.5716 42.2768L34.8491 30.1113C37.9236 28.171 41.8398 28.171 44.9144 30.1113L64.1918 42.2768C65.4947 43.099 65.4947 44.9989 64.1918 45.8211L44.9144 57.9866C41.8398 59.9269 37.9236 59.9269 34.8491 57.9866L15.5716 45.8211Z" fill="url(#paint1_linear_18_2262)"/>
<path d="M15.5716 38.6106C14.2687 37.7884 14.2687 35.8885 15.5716 35.0663L34.8491 22.9008C37.9236 20.9605 41.8398 20.9605 44.9144 22.9008L64.1918 35.0663C65.4947 35.8885 65.4947 37.7884 64.1918 38.6106L44.9144 50.7761C41.8398 52.7164 37.9236 52.7164 34.8491 50.7761L15.5716 38.6106Z" fill="url(#paint2_linear_18_2262)"/>
<path d="M15.5716 31.1522C14.2687 30.33 14.2687 28.4301 15.5716 27.6079L34.8491 15.4424C37.9236 13.5021 41.8398 13.5021 44.9144 15.4424L64.1918 27.6079C65.4947 28.4301 65.4947 30.33 64.1918 31.1522L44.9144 43.3177C41.8398 45.258 37.9236 45.258 34.8491 43.3177L15.5716 31.1522Z" fill="url(#paint3_linear_18_2262)"/>
<path d="M15.5716 31.1522C14.2687 30.33 14.2687 28.4301 15.5716 27.6079L34.8491 15.4424C37.9236 13.5021 41.8398 13.5021 44.9144 15.4424L64.1918 27.6079C65.4947 28.4301 65.4947 30.33 64.1918 31.1522L44.9144 43.3177C41.8398 45.258 37.9236 45.258 34.8491 43.3177L15.5716 31.1522Z" fill="url(#paint4_radial_18_2262)" fill-opacity="0.2"/>
<g opacity="0.8" filter="url(#filter0_f_18_2262)">
<path d="M15.5716 40.7061C14.2687 39.8839 14.2687 37.984 15.5716 37.1618L34.8491 24.9963C37.9236 23.056 41.8398 23.056 44.9144 24.9963L64.1918 37.1618C65.4947 37.984 65.4947 39.8839 64.1918 40.7061L44.9144 52.8716C41.8398 54.8119 37.9236 54.8119 34.8491 52.8716L15.5716 40.7061Z" fill="url(#paint5_linear_18_2262)"/>
</g>
<defs>
<filter id="filter0_f_18_2262" x="13.5467" y="22.4933" width="52.6701" height="32.8813" filterUnits="userSpaceOnUse" color-interpolation-filters="sRGB">
<feFlood flood-opacity="0" result="BackgroundImageFix"/>
<feBlend mode="normal" in="SourceGraphic" in2="BackgroundImageFix" result="shape"/>
<feGaussianBlur stdDeviation="0.523888" result="effect1_foregroundBlur_18_2262"/>
</filter>
<linearGradient id="paint0_linear_18_2262" x1="40.0057" y1="53.079" x2="40.0057" y2="74.0345" gradientUnits="userSpaceOnUse">
<stop stop-color="#59B9FF"/>
<stop offset="1" stop-color="#015999"/>
</linearGradient>
<linearGradient id="paint1_linear_18_2262" x1="24.289" y1="35.7907" x2="53.4409" y2="57.6081" gradientUnits="userSpaceOnUse">
<stop stop-color="#3586FF"/>
<stop offset="1" stop-color="#1341B8"/>
</linearGradient>
<linearGradient id="paint2_linear_18_2262" x1="26.3226" y1="23.2793" x2="53.4409" y2="50.3976" gradientUnits="userSpaceOnUse">
<stop stop-color="#8BC7FF"/>
<stop offset="1" stop-color="#147FE2"/>
</linearGradient>
<linearGradient id="paint3_linear_18_2262" x1="26.3226" y1="15.8209" x2="53.4409" y2="42.9392" gradientUnits="userSpaceOnUse">
<stop stop-color="white"/>
<stop offset="1" stop-color="#95D9FF"/>
</linearGradient>
<radialGradient id="paint4_radial_18_2262" cx="0" cy="0" r="1" gradientUnits="userSpaceOnUse" gradientTransform="translate(39.8817 29.3801) rotate(46.8781) scale(13.9768)">
<stop stop-color="white"/>
<stop offset="1" stop-color="#CCEDFF"/>
</radialGradient>
<linearGradient id="paint5_linear_18_2262" x1="38.434" y1="-0.757615" x2="38.9579" y2="35.3907" gradientUnits="userSpaceOnUse">
<stop stop-color="#8BC7FF" stop-opacity="0.56"/>
<stop offset="1" stop-color="#147FE2" stop-opacity="0"/>
</linearGradient>
</defs>
</svg>
